<?xml version="1.0" standalone="no"?>
<!DOCTYPE svg PUBLIC "-//W3C//DTD SVG 20010904//EN"
 "http://www.w3.org/TR/2001/REC-SVG-20010904/DTD/svg10.dtd">
<svg version="1.0" xmlns="http://www.w3.org/2000/svg"
 width="1024.000000pt" height="1024.000000pt" viewBox="0 0 1024.000000 1024.000000"
 preserveAspectRatio="xMidYMid meet">

<g transform="translate(0.000000,1024.000000) scale(0.100000,-0.100000)"
fill="#000000" stroke="none">
<path d="M2745 6900 c-117 -17 -211 -95 -242 -199 -12 -44 -15 -80 -10 -173
l7 -117 -38 25 c-29 20 -45 24 -72 20 -19 -3 -51 -6 -71 -6 -46 1 -63 -19 -57
-67 3 -24 -1 -47 -10 -61 -13 -19 -13 -30 -4 -55 6 -18 9 -42 6 -54 -4 -13 0
-33 9 -47 15 -22 14 -24 -28 -54 l-44 -31 -29 35 c-25 30 -30 46 -34 109 -7
99 -49 185 -132 270 -134 137 -267 152 -318 38 -57 -130 52 -336 223 -422 35
-18 78 -31 98 -31 31 0 45 -8 84 -48 l46 -47 -15 -45 c-30 -86 -10 -208 53
-321 2 -3 -42 -25 -97 -49 -56 -24 -103 -47 -105 -50 -3 -4 5 -38 15 -76 26
-90 76 -353 91 -479 17 -146 15 -425 -6 -610 -31 -285 -7 -564 62 -703 32 -64
48 -70 293 -103 133 -17 268 -42 331 -59 58 -17 119 -30 136 -30 139 0 1234
417 1395 531 40 29 83 122 104 228 26 132 15 351 -24 496 -49 178 -129 350
-261 559 l-60 96 27 14 c42 22 98 86 128 146 33 65 44 175 24 246 -34 119
-162 220 -214 168 -25 -25 -19 -57 21 -103 64 -76 73 -175 23 -256 -20 -32
-72 -75 -90 -75 -23 0 -176 354 -216 498 -2 7 -20 12 -45 12 -38 0 -41 2 -34
23 16 54 17 124 1 155 -18 36 -65 82 -82 82 -8 0 -10 13 -7 39 11 80 -46 172
-118 191 -87 24 -167 -33 -210 -149 -12 -34 -25 -64 -29 -66 -19 -12 -32 34
-40 147 -12 151 -25 218 -56 284 -60 127 -214 198 -379 174z m-41 -115 c-43
-44 -74 -118 -74 -174 0 -24 -1 -24 -15 -5 -11 14 -14 15 -15 4 0 -13 -1 -13
-10 0 -9 13 -11 13 -21 0 -8 -11 -9 -1 -6 38 5 67 45 126 106 159 71 37 84 29
35 -22z m292 -1 c54 -43 52 -51 -9 -56 -30 -2 -81 -17 -117 -35 l-65 -30 50 2
c28 1 85 8 129 15 48 7 82 8 88 2 5 -5 11 -24 14 -43 5 -33 4 -35 -41 -53 -57
-23 -212 -124 -240 -156 -23 -26 -19 -25 54 24 53 36 201 109 207 103 2 -2
-37 -23 -87 -48 -50 -24 -95 -50 -101 -57 -6 -7 29 7 78 31 128 62 135 67 129
80 -4 7 1 3 9 -7 10 -12 16 -39 16 -67 0 -25 3 -59 6 -75 5 -27 2 -31 -51 -57
-47 -23 -65 -26 -103 -21 -41 5 -50 3 -70 -19 -13 -14 -29 -44 -36 -68 -9 -30
-22 -48 -42 -59 -20 -12 -32 -28 -38 -56 -5 -21 -11 -41 -12 -43 -4 -5 -39 23
-41 34 -75 448 -75 537 0 622 47 53 99 74 174 70 52 -2 69 -8 99 -33z m-13
-91 c-7 -2 -19 -2 -25 0 -7 3 -2 5 12 5 14 0 19 -2 13 -5z m-73 -13 c-34 -11
-60 -11 -35 0 11 5 29 8 40 8 16 0 15 -2 -5 -8z m-1045 -134 c62 -28 153 -125
191 -201 19 -41 28 -77 32 -130 l4 -72 112 -121 c61 -67 162 -175 224 -241
l113 -120 -33 -9 c-30 -8 -36 -5 -64 27 -17 20 -85 99 -151 176 -220 256 -219
254 -295 270 -36 7 -85 25 -108 40 -159 100 -240 314 -147 387 30 24 63 22
122 -6z m702 -28 c-3 -7 -5 -2 -5 12 0 14 2 19 5 13 2 -7 2 -19 0 -25z m10
-80 c-3 -8 -6 -5 -6 6 -1 11 2 17 5 13 3 -3 4 -12 1 -19z m793 -18 c-14 -10
-27 -17 -29 -15 -8 8 22 35 38 35 12 0 10 -5 -9 -20z m-914 -35 c-2 -7 1 -12
7 -11 13 1 17 -6 17 -28 0 -9 -9 -14 -20 -13 -16 1 -20 8 -20 40 0 24 4 36 11
32 6 -4 8 -13 5 -20z m143 -28 c1 -5 -3 -5 -9 -2 -5 3 -10 16 -9 28 0 21 1 21
9 2 5 -11 9 -24 9 -28z m-2 -49 c-3 -7 -5 -2 -5 12 0 14 2 19 5 13 2 -7 2 -19
0 -25z m-276 15 c-11 -5 -11 -7 0 -14 10 -6 7 -8 -8 -6 -17 1 -19 4 -11 14 6
7 16 13 22 12 6 0 5 -3 -3 -6z m84 -33 c3 -5 1 -10 -4 -10 -6 0 -11 5 -11 10
0 6 2 10 4 10 3 0 8 -4 11 -10z m570 -6 c13 -14 21 -15 41 -5 20 9 30 8 48 -5
14 -9 40 -14 62 -12 33 3 40 -1 52 -25 8 -16 12 -31 9 -33 -3 -3 -29 2 -58 10
-68 21 -116 20 -158 -2 -54 -27 -71 -60 -102 -198 -16 -70 -40 -158 -54 -194
-14 -36 -25 -70 -25 -77 0 -12 -22 -23 -47 -23 -21 0 -9 45 38 144 44 91 57
162 40 220 -10 38 -9 41 25 72 21 20 40 52 49 80 19 64 47 81 80 48z m-658 -8
c23 6 25 4 21 -13 -5 -19 -3 -20 34 -10 29 7 45 6 64 -3 31 -17 31 -30 0 -30
-14 0 -28 -4 -31 -10 -4 -6 9 -10 33 -10 28 0 44 -6 58 -22 10 -13 15 -20 10
-16 -5 4 -15 3 -22 -2 -6 -6 -16 -10 -20 -9 -19 3 -37 -1 -31 -8 4 -3 1 -13
-6 -21 -9 -13 -9 -14 1 -8 6 4 12 2 12 -3 0 -14 -27 -14 -36 0 -3 6 -17 9 -30
6 -29 -5 -42 10 -24 26 10 10 11 8 6 -8 -6 -16 -5 -17 5 -8 9 9 8 17 -4 37 -9
14 -14 32 -11 40 4 9 -1 18 -10 22 -9 3 -16 14 -16 24 0 13 -5 17 -20 13 -15
-4 -20 -1 -19 13 0 11 3 14 6 7 3 -8 14 -11 30 -7z m290 -18 c-3 -8 -6 -5 -6
6 -1 11 2 17 5 13 3 -3 4 -12 1 -19z m-291 -50 c5 -7 3 -8 -6 -3 -10 6 -12 4
-7 -9 4 -10 3 -15 -3 -11 -13 8 -13 35 -1 35 6 0 13 -5 17 -12z m840 -49 c84
-40 147 -128 160 -221 l6 -43 -54 -16 c-29 -9 -140 -44 -247 -78 -107 -33
-196 -59 -199 -56 -3 2 9 46 26 97 17 51 38 131 47 178 35 176 105 214 261
139z m-588 -104 l24 -22 -37 -22 c-45 -26 -76 -91 -70 -147 2 -21 4 -45 4 -52
1 -7 6 -10 11 -7 6 3 10 1 10 -4 0 -16 -11 -13 -33 7 -15 12 -19 13 -13 2 4
-8 -8 3 -28 25 -34 38 -38 62 -10 51 22 -8 17 2 -7 15 -15 8 -19 8 -15 0 4 -6
1 -11 -6 -11 -8 0 -40 26 -72 59 -41 41 -54 61 -45 66 7 5 10 4 5 -3 -3 -6 -2
-13 3 -16 5 -4 8 2 7 11 -2 10 -9 18 -17 19 -32 2 -33 6 -5 28 l29 24 34 -34
c32 -33 58 -40 118 -34 25 2 45 27 45 58 0 20 4 22 23 17 12 -4 32 -17 45 -30z
m1146 -156 c12 -119 106 -358 208 -533 14 -23 19 -41 12 -43 -5 -2 -38 -20
-73 -40 -77 -46 -165 -131 -220 -212 -26 -38 -49 -61 -60 -61 -11 0 -41 -17
-68 -38 -125 -99 -194 -123 -387 -132 -146 -7 -150 -8 -173 -34 -28 -33 -29
-55 -4 -105 27 -52 92 -108 170 -145 60 -28 75 -31 161 -31 52 0 109 4 126 8
l31 8 12 -86 c33 -233 145 -432 305 -539 38 -25 38 -26 15 -35 -13 -5 -71 -28
-129 -51 -217 -87 -681 -250 -711 -250 -2 0 -4 95 -4 211 l1 212 53 14 c115
29 200 98 182 146 -14 38 -34 42 -99 23 -33 -10 -86 -19 -117 -20 l-57 -1 -34
120 c-33 122 -104 329 -144 420 -12 27 -79 176 -150 330 -71 154 -147 330
-168 391 l-39 112 41 6 c73 12 506 123 661 170 197 60 428 146 540 200 50 25
95 45 101 45 6 1 14 -25 18 -60z m-1521 -24 c-7 -21 -13 -19 -13 6 0 11 4 18
10 14 5 -3 7 -12 3 -20z m-6 -87 c-3 -8 -6 -5 -6 6 -1 11 2 17 5 13 3 -3 4
-12 1 -19z m123 -307 c0 -38 50 -211 93 -322 25 -63 83 -201 130 -307 l86
-193 -29 -45 c-24 -39 -47 -90 -75 -169 -5 -13 -15 24 -31 110 -36 196 -86
385 -170 650 -42 132 -78 247 -81 255 -3 10 8 21 29 32 37 18 48 15 48 -11z
m-189 -11 l45 0 27 -92 c152 -530 242 -1026 248 -1375 l2 -122 -114 -76 -114
-76 -12 48 c-43 166 -52 338 -28 578 26 264 18 477 -26 705 -23 118 -69 288
-99 369 l-21 54 23 -7 c13 -3 44 -6 69 -6z m1985 -428 c56 -106 64 -132 41
-132 -19 0 -192 -86 -267 -133 -81 -51 -160 -115 -224 -181 -55 -58 -126 -161
-127 -185 -1 -42 -18 34 -20 95 l-3 69 55 55 c65 65 97 126 112 214 8 50 8 73
-2 104 -14 40 -14 41 33 106 55 77 134 148 213 193 l57 32 39 -67 c21 -37 63
-113 93 -170z m-1429 -704 c-3 -8 -6 -5 -6 6 -1 11 2 17 5 13 3 -3 4 -12 1
-19z m-4 -144 c60 -56 151 -93 235 -95 l47 -1 -52 -10 c-150 -27 -302 77 -318
217 l-6 50 20 -55 c14 -40 34 -69 74 -106z m32 98 c-3 -3 9 -21 27 -39 18 -19
25 -31 16 -28 -18 7 -54 55 -50 68 1 4 -2 7 -8 7 -5 0 -10 5 -10 11 0 8 5 7
15 -1 9 -7 13 -15 10 -18z m-120 -175 c38 -45 134 -103 184 -112 37 -6 39 -8
45 -52 7 -53 7 -304 -1 -286 -3 10 -7 10 -18 0 -10 -9 -10 -16 -2 -27 11 -14
-59 50 -190 176 l-61 59 -6 160 c-4 128 -3 156 7 139 7 -11 26 -37 42 -57z
m-9 -406 c48 -46 79 -81 69 -78 -11 3 -85 13 -165 22 -215 24 -211 21 -99 87
52 31 97 55 100 54 4 0 46 -39 95 -85z"/>
<path d="M2711 6508 c1 -18 5 -44 9 -58 6 -20 8 -14 9 27 1 28 -3 55 -9 58 -6
4 -10 -7 -9 -27z"/>
<path d="M3011 6361 c-8 -5 -9 -11 -3 -15 5 -3 12 1 16 9 6 17 6 18 -13 6z"/>
<path d="M2740 6275 c0 -22 5 -47 10 -55 7 -11 10 -4 10 25 0 22 -5 47 -10 55
-7 11 -10 4 -10 -25z"/>
<path d="M1740 6481 c-13 -32 -8 -70 17 -128 17 -42 96 -129 135 -149 43 -22
44 -16 2 15 -88 63 -138 148 -138 234 0 31 -1 57 -2 57 -1 0 -7 -13 -14 -29z"/>
<path d="M1948 6436 c23 -24 55 -72 72 -105 16 -34 33 -61 35 -61 8 0 -6 51
-22 84 -18 35 -101 126 -116 126 -5 0 9 -20 31 -44z"/>
<path d="M3110 6157 c3 -3 30 -22 60 -43 30 -20 47 -28 38 -18 -10 11 -37 31
-60 44 -24 13 -41 21 -38 17z"/>
<path d="M2985 6100 c-3 -6 1 -13 10 -16 19 -8 30 0 20 15 -8 14 -22 14 -30 1z"/>
<path d="M3052 6054 c-7 -8 -8 -14 -3 -14 10 0 25 19 20 25 -2 1 -10 -3 -17
-11z"/>
<path d="M3246 6003 c9 -20 14 -54 12 -75 -4 -41 6 -51 16 -15 9 35 7 57 -10
93 -22 46 -37 44 -18 -3z"/>
<path d="M3140 6005 c-9 -11 -10 -19 -3 -26 7 -7 14 -5 23 6 9 11 10 19 3 26
-7 7 -14 5 -23 -6z"/>
<path d="M2930 5945 c0 -9 5 -15 11 -13 6 2 11 8 11 13 0 5 -5 11 -11 13 -6 2
-11 -4 -11 -13z"/>
<path d="M3188 5923 c7 -3 16 -2 19 1 4 3 -2 6 -13 5 -11 0 -14 -3 -6 -6z"/>
<path d="M3013 5893 c-20 -7 -15 -23 7 -23 11 0 20 4 20 9 0 13 -12 19 -27 14z"/>
<path d="M2890 5795 c0 -8 5 -15 10 -15 6 0 10 7 10 15 0 8 -4 15 -10 15 -5 0
-10 -7 -10 -15z"/>
<path d="M2327 5959 c7 -7 15 -10 18 -7 3 3 -2 9 -12 12 -14 6 -15 5 -6 -5z"/>
<path d="M2455 5899 c-4 -6 -5 -12 -2 -15 2 -3 7 2 10 11 7 17 1 20 -8 4z"/>
<path d="M3305 5739 c-143 -55 -244 -97 -225 -93 73 14 269 77 355 115 86 37
161 80 140 78 -5 0 -127 -45 -270 -100z"/>
<path d="M3461 5355 c-36 -41 -73 -112 -92 -173 -11 -38 -10 -45 4 -60 16 -15
20 -14 71 10 29 15 82 32 117 39 78 14 92 24 78 50 -11 22 -79 26 -138 9 -19
-5 -36 -8 -39 -6 -2 2 15 33 37 69 45 71 48 82 25 91 -26 10 -31 8 -63 -29z"/>
<path d="M2941 5183 c-47 -39 -33 -150 27 -205 40 -37 64 -42 95 -17 22 16 27
29 27 62 -1 54 -29 116 -69 150 -38 32 -51 33 -80 10z"/>
<path d="M2591 5095 c164 -370 221 -503 249 -577 19 -49 35 -86 37 -85 6 6
-57 204 -93 294 -37 92 -185 387 -210 419 -8 11 0 -12 17 -51z"/>
<path d="M3405 4315 c6 -60 72 -199 111 -235 l27 -25 -26 41 c-29 48 -48 88
-89 194 l-29 75 6 -50z"/>
<path d="M2237 4555 c-5 -55 -15 -167 -23 -250 -16 -151 -12 -339 7 -351 5 -3
9 36 9 87 0 51 5 143 11 203 5 61 9 179 7 261 l-3 150 -8 -100z"/>
<path d="M2696 4012 c-3 -5 1 -9 9 -9 8 0 12 4 9 9 -3 4 -7 8 -9 8 -2 0 -6 -4
-9 -8z"/>
<path d="M2720 3860 c0 -5 5 -10 11 -10 5 0 7 5 4 10 -3 6 -8 10 -11 10 -2 0
-4 -4 -4 -10z"/>
<path d="M2715 3830 c3 -5 8 -10 11 -10 2 0 4 5 4 10 0 6 -5 10 -11 10 -5 0
-7 -4 -4 -10z"/>
<path d="M2698 3805 c2 -14 8 -25 12 -25 10 0 1 38 -10 45 -4 2 -5 -7 -2 -20z"/>
<path d="M2667 3775 c3 -8 9 -12 14 -9 12 7 11 11 -5 17 -10 4 -13 1 -9 -8z"/>
<path d="M2758 3778 c-4 -10 -5 -24 -2 -32 7 -18 -46 -13 -57 6 -5 7 -9 8 -9
2 0 -6 8 -18 19 -28 20 -18 44 -13 76 17 15 14 16 17 3 12 -12 -5 -17 0 -20
17 -3 20 -4 20 -10 6z"/>
<path d="M2745 3700 c3 -5 8 -10 11 -10 2 0 4 5 4 10 0 6 -5 10 -11 10 -5 0
-7 -4 -4 -10z"/>
<path d="M2777 3681 c-4 -17 -3 -21 5 -13 5 5 8 16 6 23 -3 8 -7 3 -11 -10z"/>
<path d="M4760 4685 l0 -345 65 0 65 0 0 226 c0 136 4 223 9 219 5 -3 46 -73
91 -155 l82 -150 38 0 38 0 76 138 c115 209 105 214 106 -51 l0 -228 68 3 67
3 2 320 c1 176 0 330 -3 343 -4 20 -10 22 -78 22 l-74 0 -97 -175 c-53 -96
-100 -175 -104 -175 -3 0 -49 78 -102 173 l-96 172 -76 3 -77 3 0 -346z"/>
<path d="M5770 4851 c-154 -32 -234 -183 -185 -347 30 -103 111 -163 227 -172
85 -6 146 11 195 54 l38 33 -35 35 -35 36 -49 -25 c-77 -39 -143 -31 -191 21
-14 15 -25 35 -25 45 0 18 11 19 175 19 l175 0 0 46 c0 106 -45 193 -120 230
-52 26 -120 36 -170 25z m131 -138 c10 -10 22 -33 25 -51 l7 -34 -114 4 c-107
3 -114 4 -111 23 12 80 134 117 193 58z"/>
<path d="M6150 4668 c0 -95 5 -190 10 -210 14 -48 55 -97 97 -114 64 -27 168
-12 202 29 19 24 31 21 31 -8 0 -25 1 -26 63 -23 l62 3 1 235 c0 129 -2 241
-4 248 -3 8 -26 12 -68 12 l-64 0 0 -166 0 -166 -29 -29 c-39 -38 -97 -40
-138 -5 l-28 24 -3 171 -3 171 -65 0 -64 0 0 -172z"/>
<path d="M6800 4162 c-13 -10 -23 -33 -27 -58 -4 -33 -1 -45 20 -69 20 -24 33
-30 67 -30 73 0 110 67 75 134 -8 16 -22 31 -30 35 -31 12 -83 6 -105 -12z"/>
<path d="M6470 4018 c0 -135 -1 -140 -18 -125 -31 28 -89 47 -145 47 -81 0
-139 -24 -191 -80 -59 -63 -80 -132 -74 -244 7 -127 59 -210 158 -255 81 -37
206 -20 250 34 14 17 15 16 20 -11 5 -29 5 -29 80 -29 l75 0 3 403 2 402 -80
0 -80 0 0 -142z m-54 -233 c35 -23 54 -73 54 -145 0 -105 -33 -153 -115 -165
-50 -7 -101 17 -132 64 -18 27 -23 48 -23 101 0 53 5 74 23 101 44 66 130 86
193 44z"/>
<path d="M7490 4020 c0 -87 -4 -140 -10 -140 -5 0 -10 4 -10 9 0 5 -19 19 -43
30 -85 41 -214 21 -281 -45 -149 -144 -111 -427 68 -510 86 -40 210 -25 256
31 14 17 15 16 20 -11 5 -29 6 -29 75 -29 l70 0 3 403 2 402 -75 0 -75 0 0
-140z m-88 -220 c67 -19 95 -85 83 -198 -6 -53 -12 -71 -34 -93 -39 -38 -92
-47 -149 -23 -58 24 -87 75 -86 154 0 75 25 123 77 149 48 24 58 25 109 11z"/>
<path d="M4760 3751 l0 -401 75 0 75 0 0 125 0 125 103 0 c125 0 188 17 245
66 68 58 87 103 87 209 0 99 -16 143 -71 199 -62 62 -99 71 -316 74 l-198 4 0
-401z m378 229 c40 -25 55 -61 49 -123 -8 -86 -59 -117 -192 -117 l-85 0 0
130 0 130 98 0 c79 0 103 -4 130 -20z"/>
<path d="M5580 3925 c-61 -19 -125 -76 -158 -139 -23 -45 -26 -63 -27 -146 0
-84 3 -101 27 -146 15 -28 42 -65 62 -81 105 -93 311 -97 412 -9 l39 35 -43
43 c-36 37 -44 41 -60 30 -88 -64 -217 -53 -263 22 -34 56 -36 55 184 58 l202
3 0 65 c0 113 -52 207 -139 252 -53 27 -172 34 -236 13z m176 -130 c21 -14 54
-72 54 -94 0 -7 -42 -11 -130 -11 -111 0 -130 2 -130 15 0 28 30 74 58 89 35
20 122 20 148 1z"/>
<path d="M7952 3921 c-73 -25 -122 -67 -157 -136 -27 -52 -30 -68 -30 -149 0
-82 3 -96 30 -145 58 -105 156 -156 286 -149 88 5 147 30 204 85 59 57 80 113
80 213 0 73 -4 93 -28 142 -16 32 -45 71 -65 88 -82 67 -212 88 -320 51z m199
-148 c40 -34 59 -79 59 -140 0 -93 -58 -155 -144 -155 -93 0 -146 56 -146 155
0 110 50 167 147 167 41 0 58 -5 84 -27z"/>
<path d="M6785 3918 c-3 -7 -4 -137 -3 -288 l3 -275 54 -3 c30 -2 65 -1 78 3
l23 5 -2 283 -3 282 -73 3 c-52 2 -74 -1 -77 -10z"/>
</g>
</svg>
